<svg width="137" height="118" viewBox="0 0 137 118" fill="none" xmlns="http://www.w3.org/2000/svg">
<path d="M125.222 6.37043C106.625 2.16247 66.3625 0.652298 66.3625 0.652298C56.6621 0.960198 29.6647 2.11849 11.0674 6.38511C7.54666 7.18789 4.48319 9.35135 2.54145 12.4063C0.599714 15.4612 -0.0637219 19.1612 0.695032 22.7038L17.919 103.579C18.7652 107.5 20.9215 111.014 24.0303 113.536C27.1391 116.059 31.0137 117.44 35.0116 117.449H101.409C105.407 117.44 109.282 116.059 112.391 113.536C115.499 111.014 117.656 107.5 118.502 103.579L135.711 22.7038C136.467 19.1429 135.788 15.4264 133.823 12.3662C131.858 9.30589 128.766 7.15041 125.222 6.37043Z" fill="#ECD6C4"/>
</svg>
